<svg xmlns="http://www.w3.org/2000/svg" version="1.1" xmlns:xlink="http://www.w3.org/1999/xlink" xmlns:svgjs="http://svgjs.com/svgjs" width="512" height="512" x="0" y="0" viewBox="0 0 16.933333 16.933334" style="enable-background:new 0 0 512 512" xml:space="preserve" class=""><g><g xmlns="http://www.w3.org/2000/svg" id="layer1" transform="translate(0 -280.067)"><path id="path10753" d="m3.4395836 282.97706v1.05834c-1.17263 0-2.11667.94403-2.11667 2.11666v9.51208c0 .30031.23601.54209.52917.54209h8.4666694c.293151 0 .529161-.24178.529161-.54209v-9.51208c0-1.17263-.9440304-2.11666-2.1166605-2.11666v-1.05834z" fill="#efefef" data-original="#33b9ef" class=""></path><path id="path10755" d="m3.1749936 280.86039h5.82084c.2931499 0 .5291598.23601.5291598.52917v1.05834c0 .29315-.2360099.52916-.5291598.52916h-5.82084c-.2931599 0-.52917-.23601-.52917-.52916v-1.05834c0-.29316.2360101-.52917.52917-.52917z" fill="#ffffff" data-original="#dbe9ee" class=""></path><path id="path10757" d="m1.3229136 286.68123h9.5250004v6.87917h-9.5250004z" fill="#ffffff" data-original="#dbe9ee" class=""></path><path id="path10759" d="m5.5562534 288.26873v1.32292h-1.3229198v1.05833h1.3229198v1.32291h1.0583302v-1.32291h1.3229199v-1.05833h-1.3229199v-1.32292z" fill="#c4323b" data-original="#ff6b6b" class=""></path><path id="path11231" d="m11.906248 293.03123h-2.1166662c-.879475 0-1.5875.70803-1.5875 1.5875 0 .87948.708025 1.5875 1.5875 1.5875h2.1166662z" fill="#c4323b" data-original="#ff6b6b" class=""></path><path id="rect10761" d="m11.906248 293.03123v3.175h2.116667c.879475 0 1.5875-.70802 1.5875-1.5875 0-.87947-.708025-1.5875-1.5875-1.5875z" fill="#ffffff" data-original="#dbe9ee" class=""></path><path id="path8950-1" d="m3.1750037 280.59582c-.4351602 0-.7932401.35807-.7932401.79323v1.05833c0 .43517.3580799.7953.7932401.7953v.54466c-1.1889201.12127-2.1171901 1.15423-2.1171901 2.36524v.52917c.0005292.14612.1195.26411.26562.26355h9.2599004v5.0276c0 .35286.529169.35286.529169 0v-5.82032c0-1.21166-.902119-2.22464-2.1171895-2.36524v-.54466c.4351501 0 .79479-.36013.79479-.7953v-1.05833c0-.43516-.3596399-.79323-.79479-.79323zm0 .52968h5.8203098c.15114 0 .2656199.11239.2656199.26355v1.05833c0 .15116-.1144799.26562-.2656199.26562h-5.8203098c-.1511501 0-.2635502-.11446-.2635502-.26562v-1.05833c0-.15116.11239-.26355.2635502-.26355zm.5291598 2.11718h4.76147v.79272c.0005292.14617.1194501.26411.26562.26355 1.0306301 0 1.8520805.823 1.8520805 1.85363v.26355h-8.9963504v-.26355c0-1.03062.823-1.85363 1.85363-1.85363.14532-.00058.2629699-.11824.2635499-.26355zm-2.3848599 4.22817c-.14695.002-.26435.12282-.26149.26975v7.92355c0 .43893.35615.80667.79479.80667h5.8203099c.34504-.008.34504-.52151 0-.52917h-5.8203099c-.14769 0-.26562-.11581-.26562-.2775v-1.83968h5.5567699c.3528599 0 .3528599-.52917 0-.52917h-5.5567699v-5.5547c.003-.14936-.11831-.27151-.26768-.26975zm4.2364299.5333c-.1453099.00058-.2629699.11824-.2635498.26355v1.05885h-1.0588501c-.14693-.00056-.2661801.11869-.26562.26562v1.05833c.0005292.14612.1194999.26411.26562.26355h1.0588501v1.05885c.0005291.14531.1182399.26297.2635498.26355h1.0588501c.1461199.00056.26503-.11743.26562-.26355v-1.05885h1.05626c.1461199.00056.2650401-.11743.26562-.26355v-1.05833c.0005292-.14693-.1186899-.26618-.26562-.26562h-1.05626v-1.05885c-.00053-.14612-.1195001-.26411-.26562-.26355zm.26562.52917h.5291601v1.05885c.0005291.14551.11855.26325.26407.26355h1.0583299v.52916h-1.0583299c-.1463201.00029-.2646302.1193-.26407.26562v1.05885h-.5291601v-1.05885c.0005292-.14693-.11869-.26618-.26562-.26562h-1.05885v-.52916h1.05885c.1461201.00055.26503-.11743.26562-.26355zm3.96875 4.2323c-1.02148 0-1.8536399.83215-1.8536399 1.85363s.8321599 1.85157 1.8536399 1.85157h4.2322995c1.021481 0 1.85156-.83009 1.85156-1.85157s-.830079-1.85363-1.85156-1.85363zm0 .52968h1.8515605v2.64635h-1.8515605c-.7374699 0-1.32447-.58493-1.32447-1.3224s.5870001-1.32395 1.32447-1.32395zm2.3807305 0h1.851569c.73747 0 1.32446.58648 1.32446 1.32395s-.58699 1.3224-1.32446 1.3224h-1.851569z" font-variant-ligatures="normal" font-variant-position="normal" font-variant-caps="normal" font-variant-numeric="normal" font-variant-alternates="normal" font-feature-settings="normal" text-indent="0" text-align="start" text-decoration-line="none" text-decoration-style="solid" text-decoration-color="#000000" text-transform="none" text-orientation="mixed" white-space="normal" shape-padding="0" isolation="auto" mix-blend-mode="normal" solid-color="#000000" solid-opacity="1" vector-effect="none" fill="#000000" data-original="#000000" class=""></path></g></g></svg>
